<mxfile host="app.diagrams.net" modified="2020-08-18T19:55:32.518Z" agent="5.0 (X11; Linux x86_64) AppleWebKit/537.36 (KHTML, like Gecko) Chrome/84.0.4147.89 Safari/537.36" etag="WIYGQCcsP2nEeVhKdpPg" version="13.6.3" type="github">
  <diagram id="R2lEEEUBdFMjLlhIrx00" name="Page-1">
    <mxGraphModel dx="1350" dy="894" grid="1" gridSize="10" guides="1" tooltips="1" connect="1" arrows="1" fold="1" page="1" pageScale="1" pageWidth="850" pageHeight="1100" math="0" shadow="0" extFonts="Permanent Marker^https://fonts.googleapis.com/css?family=Permanent+Marker">
      <root>
        <mxCell id="0" />
        <mxCell id="1" parent="0" />
        <mxCell id="40WbT2SQPUsTxAa-zE7B-28" value="" style="edgeStyle=entityRelationEdgeStyle;fontSize=12;html=1;endArrow=ERoneToMany;exitX=1;exitY=0.5;exitDx=0;exitDy=0;entryX=0;entryY=0.5;entryDx=0;entryDy=0;" edge="1" parent="1" source="40WbT2SQPUsTxAa-zE7B-2" target="40WbT2SQPUsTxAa-zE7B-24">
          <mxGeometry width="100" height="100" relative="1" as="geometry">
            <mxPoint x="320" y="260" as="sourcePoint" />
            <mxPoint x="470" y="410" as="targetPoint" />
          </mxGeometry>
        </mxCell>
        <mxCell id="40WbT2SQPUsTxAa-zE7B-63" value="" style="edgeStyle=entityRelationEdgeStyle;fontSize=12;html=1;endArrow=ERoneToMany;exitX=1;exitY=0.5;exitDx=0;exitDy=0;entryX=0;entryY=0.5;entryDx=0;entryDy=0;" edge="1" parent="1" source="40WbT2SQPUsTxAa-zE7B-51" target="40WbT2SQPUsTxAa-zE7B-21">
          <mxGeometry width="100" height="100" relative="1" as="geometry">
            <mxPoint x="310" y="495" as="sourcePoint" />
            <mxPoint x="550" y="295" as="targetPoint" />
          </mxGeometry>
        </mxCell>
        <mxCell id="40WbT2SQPUsTxAa-zE7B-64" value="" style="group" vertex="1" connectable="0" parent="1">
          <mxGeometry x="270" y="620" width="170" height="190" as="geometry" />
        </mxCell>
        <mxCell id="40WbT2SQPUsTxAa-zE7B-27" value="is_active" style="shape=partialRectangle;connectable=0;fillColor=none;top=0;left=0;bottom=0;right=0;align=left;spacingLeft=6;overflow=hidden;" vertex="1" parent="40WbT2SQPUsTxAa-zE7B-64">
          <mxGeometry x="30" y="150" width="140" height="30" as="geometry" />
        </mxCell>
        <mxCell id="40WbT2SQPUsTxAa-zE7B-1" value="teachers" style="shape=table;startSize=30;container=1;collapsible=1;childLayout=tableLayout;fixedRows=1;rowLines=0;fontStyle=1;align=center;resizeLast=1;" vertex="1" parent="40WbT2SQPUsTxAa-zE7B-64">
          <mxGeometry width="170" height="190" as="geometry" />
        </mxCell>
        <mxCell id="40WbT2SQPUsTxAa-zE7B-2" value="" style="shape=partialRectangle;collapsible=0;dropTarget=0;pointerEvents=0;fillColor=none;top=0;left=0;bottom=1;right=0;points=[[0,0.5],[1,0.5]];portConstraint=eastwest;" vertex="1" parent="40WbT2SQPUsTxAa-zE7B-1">
          <mxGeometry y="30" width="170" height="30" as="geometry" />
        </mxCell>
        <mxCell id="40WbT2SQPUsTxAa-zE7B-3" value="PK" style="shape=partialRectangle;connectable=0;fillColor=none;top=0;left=0;bottom=0;right=0;fontStyle=1;overflow=hidden;" vertex="1" parent="40WbT2SQPUsTxAa-zE7B-2">
          <mxGeometry width="30" height="30" as="geometry" />
        </mxCell>
        <mxCell id="40WbT2SQPUsTxAa-zE7B-4" value="id" style="shape=partialRectangle;connectable=0;fillColor=none;top=0;left=0;bottom=0;right=0;align=left;spacingLeft=6;fontStyle=5;overflow=hidden;" vertex="1" parent="40WbT2SQPUsTxAa-zE7B-2">
          <mxGeometry x="30" width="140" height="30" as="geometry" />
        </mxCell>
        <mxCell id="40WbT2SQPUsTxAa-zE7B-5" value="" style="shape=partialRectangle;collapsible=0;dropTarget=0;pointerEvents=0;fillColor=none;top=0;left=0;bottom=0;right=0;points=[[0,0.5],[1,0.5]];portConstraint=eastwest;" vertex="1" parent="40WbT2SQPUsTxAa-zE7B-1">
          <mxGeometry y="60" width="170" height="30" as="geometry" />
        </mxCell>
        <mxCell id="40WbT2SQPUsTxAa-zE7B-6" value="" style="shape=partialRectangle;connectable=0;fillColor=none;top=0;left=0;bottom=0;right=0;editable=1;overflow=hidden;" vertex="1" parent="40WbT2SQPUsTxAa-zE7B-5">
          <mxGeometry width="30" height="30" as="geometry" />
        </mxCell>
        <mxCell id="40WbT2SQPUsTxAa-zE7B-7" value="name" style="shape=partialRectangle;connectable=0;fillColor=none;top=0;left=0;bottom=0;right=0;align=left;spacingLeft=6;overflow=hidden;" vertex="1" parent="40WbT2SQPUsTxAa-zE7B-5">
          <mxGeometry x="30" width="140" height="30" as="geometry" />
        </mxCell>
        <mxCell id="40WbT2SQPUsTxAa-zE7B-8" value="" style="shape=partialRectangle;collapsible=0;dropTarget=0;pointerEvents=0;fillColor=none;top=0;left=0;bottom=0;right=0;points=[[0,0.5],[1,0.5]];portConstraint=eastwest;" vertex="1" parent="40WbT2SQPUsTxAa-zE7B-1">
          <mxGeometry y="90" width="170" height="30" as="geometry" />
        </mxCell>
        <mxCell id="40WbT2SQPUsTxAa-zE7B-9" value="" style="shape=partialRectangle;connectable=0;fillColor=none;top=0;left=0;bottom=0;right=0;editable=1;overflow=hidden;" vertex="1" parent="40WbT2SQPUsTxAa-zE7B-8">
          <mxGeometry width="30" height="30" as="geometry" />
        </mxCell>
        <mxCell id="40WbT2SQPUsTxAa-zE7B-10" value="start_date" style="shape=partialRectangle;connectable=0;fillColor=none;top=0;left=0;bottom=0;right=0;align=left;spacingLeft=6;overflow=hidden;" vertex="1" parent="40WbT2SQPUsTxAa-zE7B-8">
          <mxGeometry x="30" width="140" height="30" as="geometry" />
        </mxCell>
        <mxCell id="40WbT2SQPUsTxAa-zE7B-11" value="" style="shape=partialRectangle;collapsible=0;dropTarget=0;pointerEvents=0;fillColor=none;top=0;left=0;bottom=0;right=0;points=[[0,0.5],[1,0.5]];portConstraint=eastwest;" vertex="1" parent="40WbT2SQPUsTxAa-zE7B-1">
          <mxGeometry y="120" width="170" height="30" as="geometry" />
        </mxCell>
        <mxCell id="40WbT2SQPUsTxAa-zE7B-12" value="" style="shape=partialRectangle;connectable=0;fillColor=none;top=0;left=0;bottom=0;right=0;editable=1;overflow=hidden;" vertex="1" parent="40WbT2SQPUsTxAa-zE7B-11">
          <mxGeometry width="30" height="30" as="geometry" />
        </mxCell>
        <mxCell id="40WbT2SQPUsTxAa-zE7B-13" value="end_date" style="shape=partialRectangle;connectable=0;fillColor=none;top=0;left=0;bottom=0;right=0;align=left;spacingLeft=6;overflow=hidden;" vertex="1" parent="40WbT2SQPUsTxAa-zE7B-11">
          <mxGeometry x="30" width="140" height="30" as="geometry" />
        </mxCell>
        <mxCell id="40WbT2SQPUsTxAa-zE7B-93" value="" style="edgeStyle=entityRelationEdgeStyle;fontSize=12;html=1;endArrow=ERoneToMany;entryX=0;entryY=0.5;entryDx=0;entryDy=0;exitX=1;exitY=0.5;exitDx=0;exitDy=0;" edge="1" parent="1" source="40WbT2SQPUsTxAa-zE7B-79" target="40WbT2SQPUsTxAa-zE7B-75">
          <mxGeometry width="100" height="100" relative="1" as="geometry">
            <mxPoint x="280" y="130" as="sourcePoint" />
            <mxPoint x="380" y="30" as="targetPoint" />
          </mxGeometry>
        </mxCell>
        <mxCell id="40WbT2SQPUsTxAa-zE7B-118" value="" style="edgeStyle=entityRelationEdgeStyle;fontSize=12;html=1;endArrow=ERoneToMany;entryX=0;entryY=0.5;entryDx=0;entryDy=0;exitX=1;exitY=0.5;exitDx=0;exitDy=0;" edge="1" parent="1" source="40WbT2SQPUsTxAa-zE7B-96" target="40WbT2SQPUsTxAa-zE7B-18">
          <mxGeometry width="100" height="100" relative="1" as="geometry">
            <mxPoint x="240" y="160" as="sourcePoint" />
            <mxPoint x="340" y="60" as="targetPoint" />
          </mxGeometry>
        </mxCell>
        <mxCell id="40WbT2SQPUsTxAa-zE7B-136" value="" style="edgeStyle=entityRelationEdgeStyle;fontSize=12;html=1;endArrow=ERoneToMany;entryX=0;entryY=0.5;entryDx=0;entryDy=0;exitX=1;exitY=0.333;exitDx=0;exitDy=0;exitPerimeter=0;" edge="1" parent="1" source="40WbT2SQPUsTxAa-zE7B-96" target="40WbT2SQPUsTxAa-zE7B-123">
          <mxGeometry width="100" height="100" relative="1" as="geometry">
            <mxPoint x="245" y="80" as="sourcePoint" />
            <mxPoint x="440" y="120" as="targetPoint" />
          </mxGeometry>
        </mxCell>
        <mxCell id="40WbT2SQPUsTxAa-zE7B-119" value="assignment_submissions" style="shape=table;startSize=30;container=1;collapsible=1;childLayout=tableLayout;fixedRows=1;rowLines=0;fontStyle=1;align=center;resizeLast=1;" vertex="1" parent="1">
          <mxGeometry x="520" y="20" width="180" height="180" as="geometry" />
        </mxCell>
        <mxCell id="40WbT2SQPUsTxAa-zE7B-120" value="" style="shape=partialRectangle;collapsible=0;dropTarget=0;pointerEvents=0;fillColor=none;top=0;left=0;bottom=1;right=0;points=[[0,0.5],[1,0.5]];portConstraint=eastwest;" vertex="1" parent="40WbT2SQPUsTxAa-zE7B-119">
          <mxGeometry y="30" width="180" height="30" as="geometry" />
        </mxCell>
        <mxCell id="40WbT2SQPUsTxAa-zE7B-121" value="PK" style="shape=partialRectangle;connectable=0;fillColor=none;top=0;left=0;bottom=0;right=0;fontStyle=1;overflow=hidden;" vertex="1" parent="40WbT2SQPUsTxAa-zE7B-120">
          <mxGeometry width="30" height="30" as="geometry" />
        </mxCell>
        <mxCell id="40WbT2SQPUsTxAa-zE7B-122" value="id" style="shape=partialRectangle;connectable=0;fillColor=none;top=0;left=0;bottom=0;right=0;align=left;spacingLeft=6;fontStyle=5;overflow=hidden;" vertex="1" parent="40WbT2SQPUsTxAa-zE7B-120">
          <mxGeometry x="30" width="150" height="30" as="geometry" />
        </mxCell>
        <mxCell id="40WbT2SQPUsTxAa-zE7B-123" value="" style="shape=partialRectangle;collapsible=0;dropTarget=0;pointerEvents=0;fillColor=none;top=0;left=0;bottom=0;right=0;points=[[0,0.5],[1,0.5]];portConstraint=eastwest;" vertex="1" parent="40WbT2SQPUsTxAa-zE7B-119">
          <mxGeometry y="60" width="180" height="30" as="geometry" />
        </mxCell>
        <mxCell id="40WbT2SQPUsTxAa-zE7B-124" value="FK" style="shape=partialRectangle;connectable=0;fillColor=none;top=0;left=0;bottom=0;right=0;editable=1;overflow=hidden;" vertex="1" parent="40WbT2SQPUsTxAa-zE7B-123">
          <mxGeometry width="30" height="30" as="geometry" />
        </mxCell>
        <mxCell id="40WbT2SQPUsTxAa-zE7B-125" value="assignment_id" style="shape=partialRectangle;connectable=0;fillColor=none;top=0;left=0;bottom=0;right=0;align=left;spacingLeft=6;overflow=hidden;" vertex="1" parent="40WbT2SQPUsTxAa-zE7B-123">
          <mxGeometry x="30" width="150" height="30" as="geometry" />
        </mxCell>
        <mxCell id="40WbT2SQPUsTxAa-zE7B-126" value="" style="shape=partialRectangle;collapsible=0;dropTarget=0;pointerEvents=0;fillColor=none;top=0;left=0;bottom=0;right=0;points=[[0,0.5],[1,0.5]];portConstraint=eastwest;" vertex="1" parent="40WbT2SQPUsTxAa-zE7B-119">
          <mxGeometry y="90" width="180" height="30" as="geometry" />
        </mxCell>
        <mxCell id="40WbT2SQPUsTxAa-zE7B-127" value="FK" style="shape=partialRectangle;connectable=0;fillColor=none;top=0;left=0;bottom=0;right=0;editable=1;overflow=hidden;" vertex="1" parent="40WbT2SQPUsTxAa-zE7B-126">
          <mxGeometry width="30" height="30" as="geometry" />
        </mxCell>
        <mxCell id="40WbT2SQPUsTxAa-zE7B-128" value="student_id" style="shape=partialRectangle;connectable=0;fillColor=none;top=0;left=0;bottom=0;right=0;align=left;spacingLeft=6;overflow=hidden;" vertex="1" parent="40WbT2SQPUsTxAa-zE7B-126">
          <mxGeometry x="30" width="150" height="30" as="geometry" />
        </mxCell>
        <mxCell id="40WbT2SQPUsTxAa-zE7B-129" value="" style="shape=partialRectangle;collapsible=0;dropTarget=0;pointerEvents=0;fillColor=none;top=0;left=0;bottom=0;right=0;points=[[0,0.5],[1,0.5]];portConstraint=eastwest;" vertex="1" parent="40WbT2SQPUsTxAa-zE7B-119">
          <mxGeometry y="120" width="180" height="30" as="geometry" />
        </mxCell>
        <mxCell id="40WbT2SQPUsTxAa-zE7B-130" value="" style="shape=partialRectangle;connectable=0;fillColor=none;top=0;left=0;bottom=0;right=0;editable=1;overflow=hidden;" vertex="1" parent="40WbT2SQPUsTxAa-zE7B-129">
          <mxGeometry width="30" height="30" as="geometry" />
        </mxCell>
        <mxCell id="40WbT2SQPUsTxAa-zE7B-131" value="duration" style="shape=partialRectangle;connectable=0;fillColor=none;top=0;left=0;bottom=0;right=0;align=left;spacingLeft=6;overflow=hidden;" vertex="1" parent="40WbT2SQPUsTxAa-zE7B-129">
          <mxGeometry x="30" width="150" height="30" as="geometry" />
        </mxCell>
        <mxCell id="40WbT2SQPUsTxAa-zE7B-132" value="" style="shape=partialRectangle;collapsible=0;dropTarget=0;pointerEvents=0;fillColor=none;top=0;left=0;bottom=0;right=0;points=[[0,0.5],[1,0.5]];portConstraint=eastwest;" vertex="1" parent="40WbT2SQPUsTxAa-zE7B-119">
          <mxGeometry y="150" width="180" height="30" as="geometry" />
        </mxCell>
        <mxCell id="40WbT2SQPUsTxAa-zE7B-133" value="" style="shape=partialRectangle;connectable=0;fillColor=none;top=0;left=0;bottom=0;right=0;editable=1;overflow=hidden;" vertex="1" parent="40WbT2SQPUsTxAa-zE7B-132">
          <mxGeometry width="30" height="30" as="geometry" />
        </mxCell>
        <mxCell id="40WbT2SQPUsTxAa-zE7B-134" value="submission_date" style="shape=partialRectangle;connectable=0;fillColor=none;top=0;left=0;bottom=0;right=0;align=left;spacingLeft=6;overflow=hidden;" vertex="1" parent="40WbT2SQPUsTxAa-zE7B-132">
          <mxGeometry x="30" width="150" height="30" as="geometry" />
        </mxCell>
        <mxCell id="40WbT2SQPUsTxAa-zE7B-138" value="" style="edgeStyle=entityRelationEdgeStyle;fontSize=12;html=1;endArrow=ERoneToMany;entryX=0;entryY=0.5;entryDx=0;entryDy=0;exitX=1;exitY=0.5;exitDx=0;exitDy=0;" edge="1" parent="1" source="40WbT2SQPUsTxAa-zE7B-51" target="40WbT2SQPUsTxAa-zE7B-126">
          <mxGeometry width="100" height="100" relative="1" as="geometry">
            <mxPoint x="420" y="230" as="sourcePoint" />
            <mxPoint x="520" y="130" as="targetPoint" />
          </mxGeometry>
        </mxCell>
        <mxCell id="40WbT2SQPUsTxAa-zE7B-14" value="assistance_requests" style="shape=table;startSize=30;container=1;collapsible=1;childLayout=tableLayout;fixedRows=1;rowLines=0;fontStyle=1;align=center;resizeLast=1;" vertex="1" parent="1">
          <mxGeometry x="620" y="320" width="180" height="310" as="geometry" />
        </mxCell>
        <mxCell id="40WbT2SQPUsTxAa-zE7B-15" value="" style="shape=partialRectangle;collapsible=0;dropTarget=0;pointerEvents=0;fillColor=none;top=0;left=0;bottom=1;right=0;points=[[0,0.5],[1,0.5]];portConstraint=eastwest;" vertex="1" parent="40WbT2SQPUsTxAa-zE7B-14">
          <mxGeometry y="30" width="180" height="30" as="geometry" />
        </mxCell>
        <mxCell id="40WbT2SQPUsTxAa-zE7B-16" value="PK" style="shape=partialRectangle;connectable=0;fillColor=none;top=0;left=0;bottom=0;right=0;fontStyle=1;overflow=hidden;" vertex="1" parent="40WbT2SQPUsTxAa-zE7B-15">
          <mxGeometry width="30" height="30" as="geometry" />
        </mxCell>
        <mxCell id="40WbT2SQPUsTxAa-zE7B-17" value="id" style="shape=partialRectangle;connectable=0;fillColor=none;top=0;left=0;bottom=0;right=0;align=left;spacingLeft=6;fontStyle=5;overflow=hidden;" vertex="1" parent="40WbT2SQPUsTxAa-zE7B-15">
          <mxGeometry x="30" width="150" height="30" as="geometry" />
        </mxCell>
        <mxCell id="40WbT2SQPUsTxAa-zE7B-18" value="" style="shape=partialRectangle;collapsible=0;dropTarget=0;pointerEvents=0;fillColor=none;top=0;left=0;bottom=0;right=0;points=[[0,0.5],[1,0.5]];portConstraint=eastwest;" vertex="1" parent="40WbT2SQPUsTxAa-zE7B-14">
          <mxGeometry y="60" width="180" height="30" as="geometry" />
        </mxCell>
        <mxCell id="40WbT2SQPUsTxAa-zE7B-19" value="FK" style="shape=partialRectangle;connectable=0;fillColor=none;top=0;left=0;bottom=0;right=0;editable=1;overflow=hidden;" vertex="1" parent="40WbT2SQPUsTxAa-zE7B-18">
          <mxGeometry width="30" height="30" as="geometry" />
        </mxCell>
        <mxCell id="40WbT2SQPUsTxAa-zE7B-20" value="assignment_id" style="shape=partialRectangle;connectable=0;fillColor=none;top=0;left=0;bottom=0;right=0;align=left;spacingLeft=6;overflow=hidden;" vertex="1" parent="40WbT2SQPUsTxAa-zE7B-18">
          <mxGeometry x="30" width="150" height="30" as="geometry" />
        </mxCell>
        <mxCell id="40WbT2SQPUsTxAa-zE7B-21" value="" style="shape=partialRectangle;collapsible=0;dropTarget=0;pointerEvents=0;fillColor=none;top=0;left=0;bottom=0;right=0;points=[[0,0.5],[1,0.5]];portConstraint=eastwest;" vertex="1" parent="40WbT2SQPUsTxAa-zE7B-14">
          <mxGeometry y="90" width="180" height="30" as="geometry" />
        </mxCell>
        <mxCell id="40WbT2SQPUsTxAa-zE7B-22" value="FK" style="shape=partialRectangle;connectable=0;fillColor=none;top=0;left=0;bottom=0;right=0;editable=1;overflow=hidden;" vertex="1" parent="40WbT2SQPUsTxAa-zE7B-21">
          <mxGeometry width="30" height="30" as="geometry" />
        </mxCell>
        <mxCell id="40WbT2SQPUsTxAa-zE7B-23" value="student_id" style="shape=partialRectangle;connectable=0;fillColor=none;top=0;left=0;bottom=0;right=0;align=left;spacingLeft=6;overflow=hidden;" vertex="1" parent="40WbT2SQPUsTxAa-zE7B-21">
          <mxGeometry x="30" width="150" height="30" as="geometry" />
        </mxCell>
        <mxCell id="40WbT2SQPUsTxAa-zE7B-24" value="" style="shape=partialRectangle;collapsible=0;dropTarget=0;pointerEvents=0;fillColor=none;top=0;left=0;bottom=0;right=0;points=[[0,0.5],[1,0.5]];portConstraint=eastwest;" vertex="1" parent="40WbT2SQPUsTxAa-zE7B-14">
          <mxGeometry y="120" width="180" height="30" as="geometry" />
        </mxCell>
        <mxCell id="40WbT2SQPUsTxAa-zE7B-25" value="FK" style="shape=partialRectangle;connectable=0;fillColor=none;top=0;left=0;bottom=0;right=0;editable=1;overflow=hidden;" vertex="1" parent="40WbT2SQPUsTxAa-zE7B-24">
          <mxGeometry width="30" height="30" as="geometry" />
        </mxCell>
        <mxCell id="40WbT2SQPUsTxAa-zE7B-26" value="teacher_id" style="shape=partialRectangle;connectable=0;fillColor=none;top=0;left=0;bottom=0;right=0;align=left;spacingLeft=6;overflow=hidden;" vertex="1" parent="40WbT2SQPUsTxAa-zE7B-24">
          <mxGeometry x="30" width="150" height="30" as="geometry" />
        </mxCell>
        <mxCell id="40WbT2SQPUsTxAa-zE7B-32" value="" style="shape=partialRectangle;collapsible=0;dropTarget=0;pointerEvents=0;fillColor=none;top=0;left=0;bottom=0;right=0;points=[[0,0.5],[1,0.5]];portConstraint=eastwest;" vertex="1" parent="40WbT2SQPUsTxAa-zE7B-14">
          <mxGeometry y="150" width="180" height="30" as="geometry" />
        </mxCell>
        <mxCell id="40WbT2SQPUsTxAa-zE7B-33" value="" style="shape=partialRectangle;connectable=0;fillColor=none;top=0;left=0;bottom=0;right=0;editable=1;overflow=hidden;" vertex="1" parent="40WbT2SQPUsTxAa-zE7B-32">
          <mxGeometry width="30" height="30" as="geometry" />
        </mxCell>
        <mxCell id="40WbT2SQPUsTxAa-zE7B-34" value="created_at" style="shape=partialRectangle;connectable=0;fillColor=none;top=0;left=0;bottom=0;right=0;align=left;spacingLeft=6;overflow=hidden;" vertex="1" parent="40WbT2SQPUsTxAa-zE7B-32">
          <mxGeometry x="30" width="150" height="30" as="geometry" />
        </mxCell>
        <mxCell id="40WbT2SQPUsTxAa-zE7B-35" value="" style="shape=partialRectangle;collapsible=0;dropTarget=0;pointerEvents=0;fillColor=none;top=0;left=0;bottom=0;right=0;points=[[0,0.5],[1,0.5]];portConstraint=eastwest;" vertex="1" parent="40WbT2SQPUsTxAa-zE7B-14">
          <mxGeometry y="180" width="180" height="30" as="geometry" />
        </mxCell>
        <mxCell id="40WbT2SQPUsTxAa-zE7B-36" value="" style="shape=partialRectangle;connectable=0;fillColor=none;top=0;left=0;bottom=0;right=0;editable=1;overflow=hidden;" vertex="1" parent="40WbT2SQPUsTxAa-zE7B-35">
          <mxGeometry width="30" height="30" as="geometry" />
        </mxCell>
        <mxCell id="40WbT2SQPUsTxAa-zE7B-37" value="started_at" style="shape=partialRectangle;connectable=0;fillColor=none;top=0;left=0;bottom=0;right=0;align=left;spacingLeft=6;overflow=hidden;" vertex="1" parent="40WbT2SQPUsTxAa-zE7B-35">
          <mxGeometry x="30" width="150" height="30" as="geometry" />
        </mxCell>
        <mxCell id="40WbT2SQPUsTxAa-zE7B-38" value="" style="shape=partialRectangle;collapsible=0;dropTarget=0;pointerEvents=0;fillColor=none;top=0;left=0;bottom=0;right=0;points=[[0,0.5],[1,0.5]];portConstraint=eastwest;" vertex="1" parent="40WbT2SQPUsTxAa-zE7B-14">
          <mxGeometry y="210" width="180" height="30" as="geometry" />
        </mxCell>
        <mxCell id="40WbT2SQPUsTxAa-zE7B-39" value="" style="shape=partialRectangle;connectable=0;fillColor=none;top=0;left=0;bottom=0;right=0;editable=1;overflow=hidden;" vertex="1" parent="40WbT2SQPUsTxAa-zE7B-38">
          <mxGeometry width="30" height="30" as="geometry" />
        </mxCell>
        <mxCell id="40WbT2SQPUsTxAa-zE7B-40" value="completed_at" style="shape=partialRectangle;connectable=0;fillColor=none;top=0;left=0;bottom=0;right=0;align=left;spacingLeft=6;overflow=hidden;" vertex="1" parent="40WbT2SQPUsTxAa-zE7B-38">
          <mxGeometry x="30" width="150" height="30" as="geometry" />
        </mxCell>
        <mxCell id="40WbT2SQPUsTxAa-zE7B-41" value="" style="shape=partialRectangle;collapsible=0;dropTarget=0;pointerEvents=0;fillColor=none;top=0;left=0;bottom=0;right=0;points=[[0,0.5],[1,0.5]];portConstraint=eastwest;" vertex="1" parent="40WbT2SQPUsTxAa-zE7B-14">
          <mxGeometry y="240" width="180" height="30" as="geometry" />
        </mxCell>
        <mxCell id="40WbT2SQPUsTxAa-zE7B-42" value="" style="shape=partialRectangle;connectable=0;fillColor=none;top=0;left=0;bottom=0;right=0;editable=1;overflow=hidden;" vertex="1" parent="40WbT2SQPUsTxAa-zE7B-41">
          <mxGeometry width="30" height="30" as="geometry" />
        </mxCell>
        <mxCell id="40WbT2SQPUsTxAa-zE7B-43" value="student_feedback" style="shape=partialRectangle;connectable=0;fillColor=none;top=0;left=0;bottom=0;right=0;align=left;spacingLeft=6;overflow=hidden;" vertex="1" parent="40WbT2SQPUsTxAa-zE7B-41">
          <mxGeometry x="30" width="150" height="30" as="geometry" />
        </mxCell>
        <mxCell id="40WbT2SQPUsTxAa-zE7B-44" value="" style="shape=partialRectangle;collapsible=0;dropTarget=0;pointerEvents=0;fillColor=none;top=0;left=0;bottom=0;right=0;points=[[0,0.5],[1,0.5]];portConstraint=eastwest;" vertex="1" parent="40WbT2SQPUsTxAa-zE7B-14">
          <mxGeometry y="270" width="180" height="30" as="geometry" />
        </mxCell>
        <mxCell id="40WbT2SQPUsTxAa-zE7B-45" value="" style="shape=partialRectangle;connectable=0;fillColor=none;top=0;left=0;bottom=0;right=0;editable=1;overflow=hidden;" vertex="1" parent="40WbT2SQPUsTxAa-zE7B-44">
          <mxGeometry width="30" height="30" as="geometry" />
        </mxCell>
        <mxCell id="40WbT2SQPUsTxAa-zE7B-46" value="teacher_feedback" style="shape=partialRectangle;connectable=0;fillColor=none;top=0;left=0;bottom=0;right=0;align=left;spacingLeft=6;overflow=hidden;" vertex="1" parent="40WbT2SQPUsTxAa-zE7B-44">
          <mxGeometry x="30" width="150" height="30" as="geometry" />
        </mxCell>
        <mxCell id="40WbT2SQPUsTxAa-zE7B-95" value="assignments" style="shape=table;startSize=30;container=1;collapsible=1;childLayout=tableLayout;fixedRows=1;rowLines=0;fontStyle=1;align=center;resizeLast=1;" vertex="1" parent="1">
          <mxGeometry x="260" y="50" width="180" height="210" as="geometry" />
        </mxCell>
        <mxCell id="40WbT2SQPUsTxAa-zE7B-96" value="" style="shape=partialRectangle;collapsible=0;dropTarget=0;pointerEvents=0;fillColor=none;top=0;left=0;bottom=1;right=0;points=[[0,0.5],[1,0.5]];portConstraint=eastwest;" vertex="1" parent="40WbT2SQPUsTxAa-zE7B-95">
          <mxGeometry y="30" width="180" height="30" as="geometry" />
        </mxCell>
        <mxCell id="40WbT2SQPUsTxAa-zE7B-97" value="PK" style="shape=partialRectangle;connectable=0;fillColor=none;top=0;left=0;bottom=0;right=0;fontStyle=1;overflow=hidden;" vertex="1" parent="40WbT2SQPUsTxAa-zE7B-96">
          <mxGeometry width="30" height="30" as="geometry" />
        </mxCell>
        <mxCell id="40WbT2SQPUsTxAa-zE7B-98" value="id" style="shape=partialRectangle;connectable=0;fillColor=none;top=0;left=0;bottom=0;right=0;align=left;spacingLeft=6;fontStyle=5;overflow=hidden;" vertex="1" parent="40WbT2SQPUsTxAa-zE7B-96">
          <mxGeometry x="30" width="150" height="30" as="geometry" />
        </mxCell>
        <mxCell id="40WbT2SQPUsTxAa-zE7B-99" value="" style="shape=partialRectangle;collapsible=0;dropTarget=0;pointerEvents=0;fillColor=none;top=0;left=0;bottom=0;right=0;points=[[0,0.5],[1,0.5]];portConstraint=eastwest;" vertex="1" parent="40WbT2SQPUsTxAa-zE7B-95">
          <mxGeometry y="60" width="180" height="30" as="geometry" />
        </mxCell>
        <mxCell id="40WbT2SQPUsTxAa-zE7B-100" value="" style="shape=partialRectangle;connectable=0;fillColor=none;top=0;left=0;bottom=0;right=0;editable=1;overflow=hidden;" vertex="1" parent="40WbT2SQPUsTxAa-zE7B-99">
          <mxGeometry width="30" height="30" as="geometry" />
        </mxCell>
        <mxCell id="40WbT2SQPUsTxAa-zE7B-101" value="name" style="shape=partialRectangle;connectable=0;fillColor=none;top=0;left=0;bottom=0;right=0;align=left;spacingLeft=6;overflow=hidden;" vertex="1" parent="40WbT2SQPUsTxAa-zE7B-99">
          <mxGeometry x="30" width="150" height="30" as="geometry" />
        </mxCell>
        <mxCell id="40WbT2SQPUsTxAa-zE7B-102" value="" style="shape=partialRectangle;collapsible=0;dropTarget=0;pointerEvents=0;fillColor=none;top=0;left=0;bottom=0;right=0;points=[[0,0.5],[1,0.5]];portConstraint=eastwest;" vertex="1" parent="40WbT2SQPUsTxAa-zE7B-95">
          <mxGeometry y="90" width="180" height="30" as="geometry" />
        </mxCell>
        <mxCell id="40WbT2SQPUsTxAa-zE7B-103" value="" style="shape=partialRectangle;connectable=0;fillColor=none;top=0;left=0;bottom=0;right=0;editable=1;overflow=hidden;" vertex="1" parent="40WbT2SQPUsTxAa-zE7B-102">
          <mxGeometry width="30" height="30" as="geometry" />
        </mxCell>
        <mxCell id="40WbT2SQPUsTxAa-zE7B-104" value="content" style="shape=partialRectangle;connectable=0;fillColor=none;top=0;left=0;bottom=0;right=0;align=left;spacingLeft=6;overflow=hidden;" vertex="1" parent="40WbT2SQPUsTxAa-zE7B-102">
          <mxGeometry x="30" width="150" height="30" as="geometry" />
        </mxCell>
        <mxCell id="40WbT2SQPUsTxAa-zE7B-105" value="" style="shape=partialRectangle;collapsible=0;dropTarget=0;pointerEvents=0;fillColor=none;top=0;left=0;bottom=0;right=0;points=[[0,0.5],[1,0.5]];portConstraint=eastwest;" vertex="1" parent="40WbT2SQPUsTxAa-zE7B-95">
          <mxGeometry y="120" width="180" height="30" as="geometry" />
        </mxCell>
        <mxCell id="40WbT2SQPUsTxAa-zE7B-106" value="" style="shape=partialRectangle;connectable=0;fillColor=none;top=0;left=0;bottom=0;right=0;editable=1;overflow=hidden;" vertex="1" parent="40WbT2SQPUsTxAa-zE7B-105">
          <mxGeometry width="30" height="30" as="geometry" />
        </mxCell>
        <mxCell id="40WbT2SQPUsTxAa-zE7B-107" value="day" style="shape=partialRectangle;connectable=0;fillColor=none;top=0;left=0;bottom=0;right=0;align=left;spacingLeft=6;overflow=hidden;" vertex="1" parent="40WbT2SQPUsTxAa-zE7B-105">
          <mxGeometry x="30" width="150" height="30" as="geometry" />
        </mxCell>
        <mxCell id="40WbT2SQPUsTxAa-zE7B-109" value="" style="shape=partialRectangle;collapsible=0;dropTarget=0;pointerEvents=0;fillColor=none;top=0;left=0;bottom=0;right=0;points=[[0,0.5],[1,0.5]];portConstraint=eastwest;" vertex="1" parent="40WbT2SQPUsTxAa-zE7B-95">
          <mxGeometry y="150" width="180" height="30" as="geometry" />
        </mxCell>
        <mxCell id="40WbT2SQPUsTxAa-zE7B-110" value="" style="shape=partialRectangle;connectable=0;fillColor=none;top=0;left=0;bottom=0;right=0;editable=1;overflow=hidden;" vertex="1" parent="40WbT2SQPUsTxAa-zE7B-109">
          <mxGeometry width="30" height="30" as="geometry" />
        </mxCell>
        <mxCell id="40WbT2SQPUsTxAa-zE7B-111" value="chapter" style="shape=partialRectangle;connectable=0;fillColor=none;top=0;left=0;bottom=0;right=0;align=left;spacingLeft=6;overflow=hidden;" vertex="1" parent="40WbT2SQPUsTxAa-zE7B-109">
          <mxGeometry x="30" width="150" height="30" as="geometry" />
        </mxCell>
        <mxCell id="40WbT2SQPUsTxAa-zE7B-112" value="" style="shape=partialRectangle;collapsible=0;dropTarget=0;pointerEvents=0;fillColor=none;top=0;left=0;bottom=0;right=0;points=[[0,0.5],[1,0.5]];portConstraint=eastwest;" vertex="1" parent="40WbT2SQPUsTxAa-zE7B-95">
          <mxGeometry y="180" width="180" height="30" as="geometry" />
        </mxCell>
        <mxCell id="40WbT2SQPUsTxAa-zE7B-113" value="" style="shape=partialRectangle;connectable=0;fillColor=none;top=0;left=0;bottom=0;right=0;editable=1;overflow=hidden;" vertex="1" parent="40WbT2SQPUsTxAa-zE7B-112">
          <mxGeometry width="30" height="30" as="geometry" />
        </mxCell>
        <mxCell id="40WbT2SQPUsTxAa-zE7B-114" value="duration" style="shape=partialRectangle;connectable=0;fillColor=none;top=0;left=0;bottom=0;right=0;align=left;spacingLeft=6;overflow=hidden;" vertex="1" parent="40WbT2SQPUsTxAa-zE7B-112">
          <mxGeometry x="30" width="150" height="30" as="geometry" />
        </mxCell>
        <mxCell id="40WbT2SQPUsTxAa-zE7B-50" value="students" style="shape=table;startSize=30;container=1;collapsible=1;childLayout=tableLayout;fixedRows=1;rowLines=0;fontStyle=1;align=center;resizeLast=1;" vertex="1" parent="1">
          <mxGeometry x="260" y="300" width="180" height="270" as="geometry" />
        </mxCell>
        <mxCell id="40WbT2SQPUsTxAa-zE7B-51" value="" style="shape=partialRectangle;collapsible=0;dropTarget=0;pointerEvents=0;fillColor=none;top=0;left=0;bottom=1;right=0;points=[[0,0.5],[1,0.5]];portConstraint=eastwest;" vertex="1" parent="40WbT2SQPUsTxAa-zE7B-50">
          <mxGeometry y="30" width="180" height="30" as="geometry" />
        </mxCell>
        <mxCell id="40WbT2SQPUsTxAa-zE7B-52" value="PK" style="shape=partialRectangle;connectable=0;fillColor=none;top=0;left=0;bottom=0;right=0;fontStyle=1;overflow=hidden;" vertex="1" parent="40WbT2SQPUsTxAa-zE7B-51">
          <mxGeometry width="30" height="30" as="geometry" />
        </mxCell>
        <mxCell id="40WbT2SQPUsTxAa-zE7B-53" value="id" style="shape=partialRectangle;connectable=0;fillColor=none;top=0;left=0;bottom=0;right=0;align=left;spacingLeft=6;fontStyle=5;overflow=hidden;" vertex="1" parent="40WbT2SQPUsTxAa-zE7B-51">
          <mxGeometry x="30" width="150" height="30" as="geometry" />
        </mxCell>
        <mxCell id="40WbT2SQPUsTxAa-zE7B-54" value="" style="shape=partialRectangle;collapsible=0;dropTarget=0;pointerEvents=0;fillColor=none;top=0;left=0;bottom=0;right=0;points=[[0,0.5],[1,0.5]];portConstraint=eastwest;" vertex="1" parent="40WbT2SQPUsTxAa-zE7B-50">
          <mxGeometry y="60" width="180" height="30" as="geometry" />
        </mxCell>
        <mxCell id="40WbT2SQPUsTxAa-zE7B-55" value="" style="shape=partialRectangle;connectable=0;fillColor=none;top=0;left=0;bottom=0;right=0;editable=1;overflow=hidden;" vertex="1" parent="40WbT2SQPUsTxAa-zE7B-54">
          <mxGeometry width="30" height="30" as="geometry" />
        </mxCell>
        <mxCell id="40WbT2SQPUsTxAa-zE7B-56" value="name" style="shape=partialRectangle;connectable=0;fillColor=none;top=0;left=0;bottom=0;right=0;align=left;spacingLeft=6;overflow=hidden;" vertex="1" parent="40WbT2SQPUsTxAa-zE7B-54">
          <mxGeometry x="30" width="150" height="30" as="geometry" />
        </mxCell>
        <mxCell id="40WbT2SQPUsTxAa-zE7B-57" value="" style="shape=partialRectangle;collapsible=0;dropTarget=0;pointerEvents=0;fillColor=none;top=0;left=0;bottom=0;right=0;points=[[0,0.5],[1,0.5]];portConstraint=eastwest;" vertex="1" parent="40WbT2SQPUsTxAa-zE7B-50">
          <mxGeometry y="90" width="180" height="30" as="geometry" />
        </mxCell>
        <mxCell id="40WbT2SQPUsTxAa-zE7B-58" value="" style="shape=partialRectangle;connectable=0;fillColor=none;top=0;left=0;bottom=0;right=0;editable=1;overflow=hidden;" vertex="1" parent="40WbT2SQPUsTxAa-zE7B-57">
          <mxGeometry width="30" height="30" as="geometry" />
        </mxCell>
        <mxCell id="40WbT2SQPUsTxAa-zE7B-59" value="email" style="shape=partialRectangle;connectable=0;fillColor=none;top=0;left=0;bottom=0;right=0;align=left;spacingLeft=6;overflow=hidden;" vertex="1" parent="40WbT2SQPUsTxAa-zE7B-57">
          <mxGeometry x="30" width="150" height="30" as="geometry" />
        </mxCell>
        <mxCell id="40WbT2SQPUsTxAa-zE7B-60" value="" style="shape=partialRectangle;collapsible=0;dropTarget=0;pointerEvents=0;fillColor=none;top=0;left=0;bottom=0;right=0;points=[[0,0.5],[1,0.5]];portConstraint=eastwest;" vertex="1" parent="40WbT2SQPUsTxAa-zE7B-50">
          <mxGeometry y="120" width="180" height="30" as="geometry" />
        </mxCell>
        <mxCell id="40WbT2SQPUsTxAa-zE7B-61" value="" style="shape=partialRectangle;connectable=0;fillColor=none;top=0;left=0;bottom=0;right=0;editable=1;overflow=hidden;" vertex="1" parent="40WbT2SQPUsTxAa-zE7B-60">
          <mxGeometry width="30" height="30" as="geometry" />
        </mxCell>
        <mxCell id="40WbT2SQPUsTxAa-zE7B-62" value="phone" style="shape=partialRectangle;connectable=0;fillColor=none;top=0;left=0;bottom=0;right=0;align=left;spacingLeft=6;overflow=hidden;" vertex="1" parent="40WbT2SQPUsTxAa-zE7B-60">
          <mxGeometry x="30" width="150" height="30" as="geometry" />
        </mxCell>
        <mxCell id="40WbT2SQPUsTxAa-zE7B-66" value="" style="shape=partialRectangle;collapsible=0;dropTarget=0;pointerEvents=0;fillColor=none;top=0;left=0;bottom=0;right=0;points=[[0,0.5],[1,0.5]];portConstraint=eastwest;" vertex="1" parent="40WbT2SQPUsTxAa-zE7B-50">
          <mxGeometry y="150" width="180" height="30" as="geometry" />
        </mxCell>
        <mxCell id="40WbT2SQPUsTxAa-zE7B-67" value="" style="shape=partialRectangle;connectable=0;fillColor=none;top=0;left=0;bottom=0;right=0;editable=1;overflow=hidden;" vertex="1" parent="40WbT2SQPUsTxAa-zE7B-66">
          <mxGeometry width="30" height="30" as="geometry" />
        </mxCell>
        <mxCell id="40WbT2SQPUsTxAa-zE7B-68" value="github" style="shape=partialRectangle;connectable=0;fillColor=none;top=0;left=0;bottom=0;right=0;align=left;spacingLeft=6;overflow=hidden;" vertex="1" parent="40WbT2SQPUsTxAa-zE7B-66">
          <mxGeometry x="30" width="150" height="30" as="geometry" />
        </mxCell>
        <mxCell id="40WbT2SQPUsTxAa-zE7B-69" value="" style="shape=partialRectangle;collapsible=0;dropTarget=0;pointerEvents=0;fillColor=none;top=0;left=0;bottom=0;right=0;points=[[0,0.5],[1,0.5]];portConstraint=eastwest;" vertex="1" parent="40WbT2SQPUsTxAa-zE7B-50">
          <mxGeometry y="180" width="180" height="30" as="geometry" />
        </mxCell>
        <mxCell id="40WbT2SQPUsTxAa-zE7B-70" value="" style="shape=partialRectangle;connectable=0;fillColor=none;top=0;left=0;bottom=0;right=0;editable=1;overflow=hidden;" vertex="1" parent="40WbT2SQPUsTxAa-zE7B-69">
          <mxGeometry width="30" height="30" as="geometry" />
        </mxCell>
        <mxCell id="40WbT2SQPUsTxAa-zE7B-71" value="start_date" style="shape=partialRectangle;connectable=0;fillColor=none;top=0;left=0;bottom=0;right=0;align=left;spacingLeft=6;overflow=hidden;" vertex="1" parent="40WbT2SQPUsTxAa-zE7B-69">
          <mxGeometry x="30" width="150" height="30" as="geometry" />
        </mxCell>
        <mxCell id="40WbT2SQPUsTxAa-zE7B-72" value="" style="shape=partialRectangle;collapsible=0;dropTarget=0;pointerEvents=0;fillColor=none;top=0;left=0;bottom=0;right=0;points=[[0,0.5],[1,0.5]];portConstraint=eastwest;" vertex="1" parent="40WbT2SQPUsTxAa-zE7B-50">
          <mxGeometry y="210" width="180" height="30" as="geometry" />
        </mxCell>
        <mxCell id="40WbT2SQPUsTxAa-zE7B-73" value="" style="shape=partialRectangle;connectable=0;fillColor=none;top=0;left=0;bottom=0;right=0;editable=1;overflow=hidden;" vertex="1" parent="40WbT2SQPUsTxAa-zE7B-72">
          <mxGeometry width="30" height="30" as="geometry" />
        </mxCell>
        <mxCell id="40WbT2SQPUsTxAa-zE7B-74" value="end_date" style="shape=partialRectangle;connectable=0;fillColor=none;top=0;left=0;bottom=0;right=0;align=left;spacingLeft=6;overflow=hidden;" vertex="1" parent="40WbT2SQPUsTxAa-zE7B-72">
          <mxGeometry x="30" width="150" height="30" as="geometry" />
        </mxCell>
        <mxCell id="40WbT2SQPUsTxAa-zE7B-75" value="" style="shape=partialRectangle;collapsible=0;dropTarget=0;pointerEvents=0;fillColor=none;top=0;left=0;bottom=0;right=0;points=[[0,0.5],[1,0.5]];portConstraint=eastwest;" vertex="1" parent="40WbT2SQPUsTxAa-zE7B-50">
          <mxGeometry y="240" width="180" height="30" as="geometry" />
        </mxCell>
        <mxCell id="40WbT2SQPUsTxAa-zE7B-76" value="FK" style="shape=partialRectangle;connectable=0;fillColor=none;top=0;left=0;bottom=0;right=0;editable=1;overflow=hidden;" vertex="1" parent="40WbT2SQPUsTxAa-zE7B-75">
          <mxGeometry width="30" height="30" as="geometry" />
        </mxCell>
        <mxCell id="40WbT2SQPUsTxAa-zE7B-77" value="cohort_id" style="shape=partialRectangle;connectable=0;fillColor=none;top=0;left=0;bottom=0;right=0;align=left;spacingLeft=6;overflow=hidden;" vertex="1" parent="40WbT2SQPUsTxAa-zE7B-75">
          <mxGeometry x="30" width="150" height="30" as="geometry" />
        </mxCell>
        <mxCell id="40WbT2SQPUsTxAa-zE7B-78" value="cohorts" style="shape=table;startSize=30;container=1;collapsible=1;childLayout=tableLayout;fixedRows=1;rowLines=0;fontStyle=1;align=center;resizeLast=1;" vertex="1" parent="1">
          <mxGeometry x="20" y="250" width="180" height="160" as="geometry" />
        </mxCell>
        <mxCell id="40WbT2SQPUsTxAa-zE7B-79" value="" style="shape=partialRectangle;collapsible=0;dropTarget=0;pointerEvents=0;fillColor=none;top=0;left=0;bottom=1;right=0;points=[[0,0.5],[1,0.5]];portConstraint=eastwest;" vertex="1" parent="40WbT2SQPUsTxAa-zE7B-78">
          <mxGeometry y="30" width="180" height="30" as="geometry" />
        </mxCell>
        <mxCell id="40WbT2SQPUsTxAa-zE7B-80" value="PK" style="shape=partialRectangle;connectable=0;fillColor=none;top=0;left=0;bottom=0;right=0;fontStyle=1;overflow=hidden;" vertex="1" parent="40WbT2SQPUsTxAa-zE7B-79">
          <mxGeometry width="30" height="30" as="geometry" />
        </mxCell>
        <mxCell id="40WbT2SQPUsTxAa-zE7B-81" value="id" style="shape=partialRectangle;connectable=0;fillColor=none;top=0;left=0;bottom=0;right=0;align=left;spacingLeft=6;fontStyle=5;overflow=hidden;" vertex="1" parent="40WbT2SQPUsTxAa-zE7B-79">
          <mxGeometry x="30" width="150" height="30" as="geometry" />
        </mxCell>
        <mxCell id="40WbT2SQPUsTxAa-zE7B-82" value="" style="shape=partialRectangle;collapsible=0;dropTarget=0;pointerEvents=0;fillColor=none;top=0;left=0;bottom=0;right=0;points=[[0,0.5],[1,0.5]];portConstraint=eastwest;" vertex="1" parent="40WbT2SQPUsTxAa-zE7B-78">
          <mxGeometry y="60" width="180" height="30" as="geometry" />
        </mxCell>
        <mxCell id="40WbT2SQPUsTxAa-zE7B-83" value="" style="shape=partialRectangle;connectable=0;fillColor=none;top=0;left=0;bottom=0;right=0;editable=1;overflow=hidden;" vertex="1" parent="40WbT2SQPUsTxAa-zE7B-82">
          <mxGeometry width="30" height="30" as="geometry" />
        </mxCell>
        <mxCell id="40WbT2SQPUsTxAa-zE7B-84" value="name" style="shape=partialRectangle;connectable=0;fillColor=none;top=0;left=0;bottom=0;right=0;align=left;spacingLeft=6;overflow=hidden;" vertex="1" parent="40WbT2SQPUsTxAa-zE7B-82">
          <mxGeometry x="30" width="150" height="30" as="geometry" />
        </mxCell>
        <mxCell id="40WbT2SQPUsTxAa-zE7B-85" value="" style="shape=partialRectangle;collapsible=0;dropTarget=0;pointerEvents=0;fillColor=none;top=0;left=0;bottom=0;right=0;points=[[0,0.5],[1,0.5]];portConstraint=eastwest;" vertex="1" parent="40WbT2SQPUsTxAa-zE7B-78">
          <mxGeometry y="90" width="180" height="30" as="geometry" />
        </mxCell>
        <mxCell id="40WbT2SQPUsTxAa-zE7B-86" value="" style="shape=partialRectangle;connectable=0;fillColor=none;top=0;left=0;bottom=0;right=0;editable=1;overflow=hidden;" vertex="1" parent="40WbT2SQPUsTxAa-zE7B-85">
          <mxGeometry width="30" height="30" as="geometry" />
        </mxCell>
        <mxCell id="40WbT2SQPUsTxAa-zE7B-87" value="start_date" style="shape=partialRectangle;connectable=0;fillColor=none;top=0;left=0;bottom=0;right=0;align=left;spacingLeft=6;overflow=hidden;" vertex="1" parent="40WbT2SQPUsTxAa-zE7B-85">
          <mxGeometry x="30" width="150" height="30" as="geometry" />
        </mxCell>
        <mxCell id="40WbT2SQPUsTxAa-zE7B-88" value="" style="shape=partialRectangle;collapsible=0;dropTarget=0;pointerEvents=0;fillColor=none;top=0;left=0;bottom=0;right=0;points=[[0,0.5],[1,0.5]];portConstraint=eastwest;" vertex="1" parent="40WbT2SQPUsTxAa-zE7B-78">
          <mxGeometry y="120" width="180" height="30" as="geometry" />
        </mxCell>
        <mxCell id="40WbT2SQPUsTxAa-zE7B-89" value="" style="shape=partialRectangle;connectable=0;fillColor=none;top=0;left=0;bottom=0;right=0;editable=1;overflow=hidden;" vertex="1" parent="40WbT2SQPUsTxAa-zE7B-88">
          <mxGeometry width="30" height="30" as="geometry" />
        </mxCell>
        <mxCell id="40WbT2SQPUsTxAa-zE7B-90" value="end_date" style="shape=partialRectangle;connectable=0;fillColor=none;top=0;left=0;bottom=0;right=0;align=left;spacingLeft=6;overflow=hidden;" vertex="1" parent="40WbT2SQPUsTxAa-zE7B-88">
          <mxGeometry x="30" width="150" height="30" as="geometry" />
        </mxCell>
      </root>
    </mxGraphModel>
  </diagram>
</mxfile>
